<?xml version="1.0" encoding="utf-8"?>
<!-- Generator: Adobe Illustrator 21.0.0, SVG Export Plug-In . SVG Version: 6.00 Build 0)  -->
<svg version="1.1" id="Layer_1" xmlns="http://www.w3.org/2000/svg" xmlns:xlink="http://www.w3.org/1999/xlink" x="0px" y="0px"
	 viewBox="0 0 200 200" style="enable-background:new 0 0 200 200;" xml:space="preserve">
<path d="M168.4,60.1v-5.7c0-9.4-7.7-17.1-17.1-17.1v-5.7c0-9.4-7.7-17.1-17.1-17.1H65.8c-9.4,0-17.1,7.7-17.1,17.1v5.7
	c-9.4,0-17.1,7.7-17.1,17.1v5.7c-9.4,0-17.1,7.7-17.1,17.1v91.2c0,9.4,7.7,17.1,17.1,17.1h136.9c9.4,0,17.1-7.7,17.1-17.1V77.2
	C185.5,67.8,177.9,60.1,168.4,60.1z M60.1,31.6c0-3.1,2.6-5.7,5.7-5.7h68.4c3.1,0,5.7,2.6,5.7,5.7v5.7H60.1V31.6z M43,54.4
	c0-3.1,2.6-5.7,5.7-5.7h102.6c3.1,0,5.7,2.6,5.7,5.7v5.7H43V54.4z M174.1,168.4c0,3.1-2.6,5.7-5.7,5.7H31.6c-3.1,0-5.7-2.6-5.7-5.7
	V77.2c0-3.1,2.6-5.7,5.7-5.7h136.9c3.1,0,5.7,2.6,5.7,5.7V168.4z"/>
</svg>
