<?xml version="1.0" encoding="utf-8"?>
<!-- Generator: Adobe Illustrator 21.0.0, SVG Export Plug-In . SVG Version: 6.00 Build 0)  -->
<svg version="1.1" id="Layer_1" xmlns="http://www.w3.org/2000/svg" xmlns:xlink="http://www.w3.org/1999/xlink" x="0px" y="0px"
	 viewBox="0 0 200 200" style="enable-background:new 0 0 200 200;" xml:space="preserve">
<g>
	<path d="M179.5,22.5h-159c-4.4,0-8,3.6-8,8v147.1h174.9V30.4C187.5,26,183.9,22.5,179.5,22.5z M181.5,171.6h-163V30.4
		c0-1.1,0.9-2,2-2h159c1.1,0,2,0.9,2,2V171.6z"/>
	<path d="M169.6,47.3H30.4c-1.6,0-3,1.3-3,3c0,1.6,1.3,3,3,3h139.2c1.6,0,3-1.3,3-3C172.6,48.7,171.2,47.3,169.6,47.3z"/>
	<circle cx="32.9" cy="37.9" r="2.5"/>
	<circle cx="42.8" cy="37.9" r="2.5"/>
	<circle cx="52.8" cy="37.9" r="2.5"/>
	<path d="M70.2,62.2H35.4c-4.4,0-8,3.6-8,8v84.5c0,4.4,3.6,8,8,8h34.8c4.4,0,8-3.6,8-8V70.2C78.1,65.8,74.6,62.2,70.2,62.2z
		 M72.2,154.7c0,1.1-0.9,2-2,2H35.4c-1.1,0-2-0.9-2-2V70.2c0-1.1,0.9-2,2-2h34.8c1.1,0,2,0.9,2,2V154.7z"/>
	<path d="M164.6,62.2H95c-4.4,0-8,3.6-8,8v14.9c0,4.4,3.6,8,8,8h69.6c4.4,0,8-3.6,8-8V70.2C172.6,65.8,169,62.2,164.6,62.2z
		 M166.6,85.1c0,1.1-0.9,2-2,2H95c-1.1,0-2-0.9-2-2V70.2c0-1.1,0.9-2,2-2h69.6c1.1,0,2,0.9,2,2V85.1z"/>
	<path d="M164.6,97H95c-4.4,0-8,3.6-8,8v14.9c0,4.4,3.6,8,8,8h69.6c4.4,0,8-3.6,8-8V105C172.6,100.6,169,97,164.6,97z M166.6,119.9
		c0,1.1-0.9,2-2,2H95c-1.1,0-2-0.9-2-2V105c0-1.1,0.9-2,2-2h69.6c1.1,0,2,0.9,2,2V119.9z"/>
	<path d="M164.6,131.8H95c-4.4,0-8,3.6-8,8v14.9c0,4.4,3.6,8,8,8h69.6c4.4,0,8-3.6,8-8v-14.9C172.6,135.4,169,131.8,164.6,131.8z
		 M166.6,154.7c0,1.1-0.9,2-2,2H95c-1.1,0-2-0.9-2-2v-14.9c0-1.1,0.9-2,2-2h69.6c1.1,0,2,0.9,2,2V154.7z"/>
</g>
</svg>
