<?xml version="1.0" encoding="utf-8"?>
<!-- Generator: Adobe Illustrator 21.0.0, SVG Export Plug-In . SVG Version: 6.00 Build 0)  -->
<svg version="1.1" id="Layer_1" xmlns="http://www.w3.org/2000/svg" xmlns:xlink="http://www.w3.org/1999/xlink" x="0px" y="0px"
	 viewBox="0 0 200 200" style="enable-background:new 0 0 200 200;" xml:space="preserve">
<g>
	<path d="M74.9,21.5H19.8c-3.3,0-5.8,2.8-5.8,5.8v55.4c0,3.3,2.8,5.8,5.8,5.8h55.4c3.3,0,5.8-2.8,5.8-5.8V27.3
		C81,24,78.2,21.5,74.9,21.5z M69.2,76.6H25.6V33.1h43.5V76.6z"/>
	<path d="M74.9,178.5c3.3,0,5.8-2.8,5.8-5.8v-55.4c0-3.3-2.8-5.8-5.8-5.8H19.8c-3.3,0-5.8,2.8-5.8,5.8v55.4c0,3.3,2.8,5.8,5.8,5.8
		H74.9z M25.6,123.4h43.5v43.5H25.6V123.4z"/>
	<path d="M96.4,39.1c0,3.3,2.8,5.8,5.8,5.8h77.9c3.3,0,5.8-2.8,5.8-5.8s-2.8-5.8-5.8-5.8h-77.9C98.9,33.1,96.4,35.8,96.4,39.1z"/>
	<path d="M180.2,64.7h-77.9c-3.3,0-5.8,2.8-5.8,5.8c0,3.3,2.8,5.8,5.8,5.8h77.9c3.3,0,5.8-2.8,5.8-5.8
		C185.9,67.5,183.5,64.7,180.2,64.7z"/>
	<path d="M180.2,123.4h-77.9c-3.3,0-5.8,2.8-5.8,5.8c0,3.3,2.8,5.8,5.8,5.8h77.9c3.3,0,5.8-2.8,5.8-5.8
		C185.9,125.9,183.5,123.4,180.2,123.4z"/>
	<path d="M185.9,160.9c0-3.3-2.8-5.8-5.8-5.8h-77.9c-3.3,0-5.8,2.8-5.8,5.8c0,3.3,2.8,5.8,5.8,5.8h77.9
		C183.5,166.9,185.9,164.2,185.9,160.9z"/>
</g>
</svg>
