<?xml version="1.0" encoding="utf-8"?>
<!-- Generator: Adobe Illustrator 21.0.0, SVG Export Plug-In . SVG Version: 6.00 Build 0)  -->
<svg version="1.1" id="Layer_1" xmlns="http://www.w3.org/2000/svg" xmlns:xlink="http://www.w3.org/1999/xlink" x="0px" y="0px"
	 viewBox="0 0 100 100" style="enable-background:new 0 0 100 100;" xml:space="preserve">
<style type="text/css">
	.st0{clip-path:url(#SVGID_2_);}
	.st1{fill:#FFFFFF;}
	.st2{fill:#00B7B9;}
</style>
<g>
	<g>
		<path class="st2" d="M73.9,43.8l-4-9.4h-0.1l-4,9.4h-5.2l7.2-14.2h4.1l7.2,14.2H73.9z"/>
	</g>
	<g>
		<path d="M22.9,53.5c0,2-0.6,3.4-1.9,4.5c-1.3,1-3.2,1.5-5.7,1.5h-3.2v5.8H5.7V47.2h9.6C20.4,47.2,22.9,49.3,22.9,53.5z M16,54.7
			c0.4-0.3,0.5-0.7,0.5-1.3c0-0.6-0.2-1-0.5-1.3c-0.4-0.3-0.9-0.4-1.7-0.4h-2.2v3.4h2.2C15,55.1,15.6,55,16,54.7z"/>
		<path d="M36.1,61.8h-4.9l-0.9,3.5H24l5.9-18.1h7.7l5.9,18.1h-6.5L36.1,61.8z M35.1,57.8l-1.5-6h-0.1l-0.7,3.1l-0.7,3H35.1z"/>
		<path d="M61.9,60.6v4.7H47.3V47.2h6.4v13.4H61.9z"/>
		<path d="M73,65.3h-6.4V47.2H73V65.3z"/>
		<path d="M95.4,51.9h-5.7v13.4h-6.4V51.9h-5.7v-4.7h17.7V51.9z"/>
	</g>
</g>
</svg>
