<?xml version="1.0" encoding="utf-8"?>
<!-- Generator: Adobe Illustrator 21.0.0, SVG Export Plug-In . SVG Version: 6.00 Build 0)  -->
<svg version="1.1" id="Layer_1" xmlns="http://www.w3.org/2000/svg" xmlns:xlink="http://www.w3.org/1999/xlink" x="0px" y="0px"
	 viewBox="0 0 200 200" style="enable-background:new 0 0 200 200;" xml:space="preserve">
<g>
	<path d="M192.6,45.9c-0.2-1.3-1.1-2.4-2.2-3l-63-33.5c-1.7-0.9-3.9-0.4-5.2,0.9L99.8,34.5L77.3,10.2c-1.3-1.3-3.5-1.7-5.2-0.9
		L9.4,42.9c-1.1,0.6-1.9,1.7-2.2,3c-0.2,1.3,0.2,2.6,0.9,3.7l21.2,24.7L8.1,98.9c-0.9,1.1-1.3,2.4-0.9,3.7c0.2,1.3,1.1,2.4,2.2,3
		l21.4,11.7v33.7c0,1.5,0.9,3,2.2,3.9l64.9,35.5c0.2,0.2,0.4,0.2,0.6,0.2c0.2,0,0.2,0,0.4,0.2c0.4,0,0.6,0.2,1.1,0.2
		c0.4,0,0.6,0,1.1-0.2c0.2,0,0.2,0,0.4-0.2c0.2,0,0.4-0.2,0.6-0.2l64.9-35.5c1.3-0.9,2.2-2.2,2.2-3.9v-33.7l21.4-11.7
		c1.1-0.6,1.9-1.7,2.2-3c0.2-1.3-0.2-2.6-0.9-3.7l-21.2-24.7L192,49.6C192.4,48.5,192.9,47.2,192.6,45.9z M18.1,47.9l55.2-29.4
		l19.5,21L36,68.9L18.1,47.9z M36,110.4l-18-10l18-20.8l56.5,30.9l-20.8,19.3L38,111.3C37.3,110.8,36.7,110.6,36,110.4z M95.5,179
		l-56.2-30.7v-26.2l30.9,16.9c0.6,0.4,1.3,0.4,2.2,0.4c1.1,0,2.2-0.4,3-1.1l20.3-18.8V179H95.5z M99.8,104.8L44.2,74.5l55.6-28.8
		l55.6,28.8L99.8,104.8z M160.4,148.2L104.2,179v-59.5l20.3,18.8c0.9,0.9,1.9,1.1,3,1.1c0.6,0,1.5-0.2,2.2-0.4l30.7-16.9V148.2z
		 M181.6,100.4L128,129.9l-20.8-19.3l56.5-30.9L181.6,100.4z M163.7,68.9L107,39.7l19.5-21l55.2,29.2L163.7,68.9z"/>
</g>
</svg>
