<?xml version="1.0" encoding="utf-8"?>
<!-- Generator: Adobe Illustrator 21.0.0, SVG Export Plug-In . SVG Version: 6.00 Build 0)  -->
<svg version="1.1" id="Layer_1" xmlns="http://www.w3.org/2000/svg" xmlns:xlink="http://www.w3.org/1999/xlink" x="0px" y="0px"
	 viewBox="0 0 300 300" style="enable-background:new 0 0 300 300;" xml:space="preserve">
<style type="text/css">
	.st0{fill:none;}
</style>
<g>
	<g transform="translate(-271.000000, -210.000000)">
		<g transform="translate(268.000000, 207.000000)">
			<rect x="-42" y="-41" class="st0" width="391" height="391"/>
			<path d="M105.2,275.6l25.5-18.7c13-9.5,32.7-9.5,45.7,0l25.5,18.7c11.6-4.6,22.5-11,32.4-18.7l-3.4-31.4
				c-1.7-16,8.1-33,22.8-39.6l28.2-12.4c0.6-10.4,0.6-27.5,0-38l-28.2-12.4c-14.7-6.5-24.6-23.5-22.8-39.6l3.4-31.4
				c-9.8-7.8-20.7-14.1-32.4-18.7l-25.5,18.7c-13,9.5-32.7,9.5-45.7,0l-25.5-18.7c-11.6,4.6-22.5,11-32.4,18.7l3.4,31.4
				c1.7,16-8.1,33-22.8,39.6l-28.2,12.4c-0.6,10.4-0.6,27.5,0,38l28.2,12.4c14.7,6.5,24.6,23.5,22.8,39.6l-3.4,31.4
				C82.6,264.6,93.5,270.9,105.2,275.6z M55.7,263.7l4.3-40c1-9-5-19.3-13.2-22.9L10,184.6c-2-9.7-2-50.5,0-60.2l36.8-16.2
				c8.3-3.7,14.2-14,13.2-22.9l-4.3-40c14.9-13.4,32.6-23.7,52.1-30.1l32.5,23.8c7.3,5.3,19.2,5.3,26.4,0l32.5-23.8
				c19.5,6.4,37.2,16.8,52.1,30.1l-4.3,40c-1,9,5,19.3,13.2,22.9l36.8,16.2c2,9.7,2,50.5,0,60.2l-36.8,16.2
				c-8.3,3.7-14.2,14-13.2,22.9l4.3,40c-14.9,13.4-32.6,23.7-52.1,30.1l-32.5-23.8c-7.3-5.3-19.2-5.3-26.4,0l-32.5,23.8
				C88.3,287.5,70.6,277.1,55.7,263.7z"/>
			<path d="M153.5,113.8c-22.5,0-40.7,18.2-40.7,40.7s18.2,40.7,40.7,40.7s40.7-18.2,40.7-40.7c0-4.5-3.6-8.1-8.1-8.1
				c-4.5,0-8.1,3.6-8.1,8.1c0,13.5-10.9,24.4-24.4,24.4s-24.4-10.9-24.4-24.4s10.9-24.4,24.4-24.4c4.5,0,8.1-3.6,8.1-8.1
				C161.6,117.4,158,113.8,153.5,113.8z"/>
		</g>
	</g>
</g>
<g>
</g>
<g>
</g>
<g>
</g>
<g>
</g>
<g>
</g>
<g>
</g>
<g>
</g>
<g>
</g>
<g>
</g>
<g>
</g>
<g>
</g>
<g>
</g>
<g>
</g>
<g>
</g>
<g>
</g>
</svg>
